<svg width="36" height="36" viewBox="0 0 36 36" fill="none" xmlns="http://www.w3.org/2000/svg">
<path d="M15.75 31.5C16.9926 31.5 18 30.4926 18 29.25C18 28.0074 16.9926 27 15.75 27C14.5074 27 13.5 28.0074 13.5 29.25C13.5 30.4926 14.5074 31.5 15.75 31.5Z" fill="#FF1700"/>
<path d="M26.25 31.5C27.4926 31.5 28.5 30.4926 28.5 29.25C28.5 28.0074 27.4926 27 26.25 27C25.0074 27 24 28.0074 24 29.25C24 30.4926 25.0074 31.5 26.25 31.5Z" fill="#FF1700"/>
<path d="M31.5 10.5H11.001L9.27 6.34501C9.04277 5.79772 8.65817 5.33022 8.16495 5.00176C7.67172 4.6733 7.09208 4.49867 6.4995 4.50001H3V7.50001H6.501L13.6155 24.5775C13.848 25.1355 14.3955 25.5 15 25.5H27C27.6255 25.5 28.185 25.1115 28.4055 24.528L32.9055 12.528C32.9898 12.3009 33.018 12.0568 32.9877 11.8164C32.9574 11.5761 32.8696 11.3466 32.7316 11.1475C32.5936 10.9484 32.4096 10.7856 32.1951 10.6728C31.9807 10.5601 31.7423 10.5008 31.5 10.5ZM25.5 19.5H22.5V22.5H19.5V19.5H16.5V16.5H19.5V13.5H22.5V16.5H25.5V19.5Z" fill="#FF1700"/>
</svg>
