<svg width="53" height="53" viewBox="0 0 53 53" fill="none" xmlns="http://www.w3.org/2000/svg">
<path d="M28.45 23.25C27.15 22.925 25.85 22.275 24.875 21.3C23.9 20.975 23.575 20 23.575 19.35C23.575 18.7 23.9 17.725 24.55 17.4C25.525 16.75 26.5 16.1 27.475 16.425C29.425 16.425 31.05 17.4 32.025 18.7L34.95 14.8C33.975 13.825 33 13.175 32.025 12.525C31.05 11.875 29.75 11.55 28.45 11.55V7H24.55V11.55C22.925 11.875 21.3 12.85 20 14.15C18.7 15.775 17.725 17.725 18.05 19.675C18.05 21.625 18.7 23.575 20 24.875C21.625 26.5 23.9 27.475 25.85 28.45C26.825 28.775 28.125 29.425 29.1 30.075C29.75 30.725 30.075 31.7 30.075 32.675C30.075 33.65 29.75 34.625 29.1 35.6C28.125 36.575 26.825 36.9 25.85 36.9C24.55 36.9 22.925 36.575 21.95 35.6C20.975 34.95 20 33.975 19.35 33L16.1 36.575C17.075 37.875 18.05 38.85 19.35 39.825C20.975 40.8 22.925 41.775 24.875 41.775V46H28.45V41.125C30.4 40.8 32.025 39.825 33.325 38.525C34.95 36.9 35.925 34.3 35.925 32.025C35.925 30.075 35.275 27.8 33.65 26.5C32.025 24.875 30.4 23.9 28.45 23.25ZM26.5 0.5C12.2 0.5 0.5 12.2 0.5 26.5C0.5 40.8 12.2 52.5 26.5 52.5C40.8 52.5 52.5 40.8 52.5 26.5C52.5 12.2 40.8 0.5 26.5 0.5ZM26.5 48.925C14.15 48.925 4.075 38.85 4.075 26.5C4.075 14.15 14.15 4.075 26.5 4.075C38.85 4.075 48.925 14.15 48.925 26.5C48.925 38.85 38.85 48.925 26.5 48.925Z" fill="#AB0F00"/>
</svg>
