<svg width="34" height="42" viewBox="0 0 34 42" fill="none" xmlns="http://www.w3.org/2000/svg">
<path d="M32.0984 18.9938C31.1884 16.9456 29.8655 15.1073 28.2125 13.5938L26.8484 12.3422C26.8021 12.3009 26.7464 12.2716 26.6861 12.2568C26.6258 12.2421 26.5628 12.2423 26.5026 12.2576C26.4425 12.2729 26.387 12.3027 26.341 12.3444C26.2951 12.3861 26.2601 12.4385 26.2391 12.4969L25.6297 14.2454C25.25 15.3422 24.5516 16.4625 23.5625 17.5641C23.4969 17.6344 23.4219 17.6532 23.3703 17.6579C23.3188 17.6625 23.2391 17.6532 23.1687 17.5875C23.1031 17.5313 23.0703 17.4469 23.075 17.3625C23.2484 14.5407 22.4047 11.3579 20.5578 7.89379C19.0297 5.01567 16.9062 2.77035 14.2531 1.20473L12.3172 0.0656671C12.0641 -0.0843329 11.7406 0.112542 11.7547 0.407854L11.8578 2.65785C11.9281 4.19535 11.75 5.55473 11.3281 6.68442C10.8125 8.06723 10.0719 9.3516 9.125 10.5047C8.46604 11.3061 7.71918 12.031 6.89844 12.6657C4.92174 14.1852 3.31444 16.1322 2.19687 18.361C1.08207 20.6092 0.50136 23.0844 0.5 25.5938C0.5 27.8063 0.935937 29.9485 1.79844 31.9688C2.63125 33.9139 3.83309 35.6793 5.3375 37.1672C6.85625 38.6672 8.61875 39.8485 10.5828 40.6688C12.6172 41.5219 14.7734 41.9532 17 41.9532C19.2266 41.9532 21.3828 41.5219 23.4172 40.6735C25.3764 39.858 27.158 38.6686 28.6625 37.1719C30.1812 35.6719 31.3719 33.9188 32.2016 31.9735C33.0628 29.9587 33.5046 27.7896 33.5 25.5985C33.5 23.311 33.0312 21.0891 32.0984 18.9938Z" fill="#FF1700"/>
</svg>
