<svg width="65" height="65" viewBox="0 0 65 65" fill="none" xmlns="http://www.w3.org/2000/svg">
<path opacity="0.5" d="M41.3644 50.7217C37.7605 50.7222 34.2373 49.654 31.2405 47.6523C28.2437 45.6505 25.9077 42.805 24.5281 39.4756C23.1484 36.1463 22.787 32.4825 23.4896 28.9478C24.1921 25.413 25.9271 22.166 28.4751 19.6172C31.023 17.0685 34.2696 15.3326 37.8041 14.629C41.3387 13.9254 45.0025 14.2857 48.3323 15.6643C51.6621 17.043 54.5083 19.3781 56.5109 22.3743C58.5136 25.3706 59.5828 28.8934 59.5833 32.4973V32.5C59.5783 37.3307 57.6573 41.9621 54.2417 45.3782C50.8262 48.7942 46.195 50.7159 41.3644 50.7217Z" fill="#AB0F00"/>
<path d="M23.6356 50.7217C20.0317 50.7217 16.5087 49.653 13.5122 47.6508C10.5157 45.6485 8.18015 42.8027 6.80099 39.4731C5.42184 36.1435 5.06099 32.4798 5.76407 28.9451C6.46716 25.4105 8.20261 22.1637 10.751 19.6153C13.2993 17.067 16.5461 15.3315 20.0807 14.6285C23.6154 13.9254 27.2792 14.2862 30.6087 15.6654C33.9383 17.0445 36.7842 19.38 38.7864 22.3766C40.7886 25.3731 41.8573 28.8961 41.8573 32.5C41.8523 37.3311 39.9309 41.963 36.5147 45.3791C33.0986 48.7953 28.4668 50.7166 23.6356 50.7217Z" fill="#AB0F00"/>
</svg>
